<?xml version="1.0" encoding="UTF-8"?><svg xmlns="http://www.w3.org/2000/svg" xmlns:xlink="http://www.w3.org/1999/xlink" fill-opacity="1" color-rendering="auto" color-interpolation="auto" text-rendering="auto" stroke="black" stroke-linecap="square" width="648" stroke-miterlimit="10" shape-rendering="auto" stroke-opacity="1" fill="black" stroke-dasharray="none" font-weight="normal" stroke-width="1" height="269" font-family="'Dialog'" font-style="normal" stroke-linejoin="miter" font-size="12px" stroke-dashoffset="0" image-rendering="auto">
  <!--Generated by ySVG 2.6-->
  <defs id="genericDefs"/>
  <g>
    <defs id="defs1">
      <clipPath clipPathUnits="userSpaceOnUse" id="clipPath1">
        <path d="M0 0 L648 0 L648 269 L0 269 L0 0 Z"/>
      </clipPath>
      <clipPath clipPathUnits="userSpaceOnUse" id="clipPath2">
        <path d="M201 375 L849 375 L849 644 L201 644 L201 375 Z"/>
      </clipPath>
    </defs>
    <g fill="rgb(153,204,255)" text-rendering="geometricPrecision" shape-rendering="geometricPrecision" transform="matrix(1,0,0,1,-201,-375)" stroke="rgb(153,204,255)">
      <rect x="216" y="482" clip-path="url(#clipPath2)" width="202" rx="4" ry="4" height="46" stroke="none"/>
    </g>
    <g text-rendering="geometricPrecision" stroke-miterlimit="1.45" shape-rendering="geometricPrecision" transform="matrix(1,0,0,1,-201,-375)" stroke-linecap="butt">
      <rect x="216" y="482" clip-path="url(#clipPath2)" fill="none" width="202" rx="4" ry="4" height="46"/>
      <text x="282.1997" xml:space="preserve" y="502.504" clip-path="url(#clipPath2)" font-family="'DejaVu Math TeX Gyre'" stroke="none">Benchmark</text>
      <text x="241.4415" xml:space="preserve" y="514.5041" clip-path="url(#clipPath2)" font-family="'DejaVu Math TeX Gyre'" stroke="none">(Performance trade-offs)</text>
    </g>
    <g fill="rgb(153,204,255)" text-rendering="geometricPrecision" shape-rendering="geometricPrecision" transform="matrix(1,0,0,1,-201,-375)" stroke="rgb(153,204,255)">
      <rect x="424" y="583" clip-path="url(#clipPath2)" width="202" rx="4" ry="4" height="46" stroke="none"/>
    </g>
    <g text-rendering="geometricPrecision" stroke-miterlimit="1.45" shape-rendering="geometricPrecision" transform="matrix(1,0,0,1,-201,-375)" stroke-linecap="butt">
      <rect x="424" y="583" clip-path="url(#clipPath2)" fill="none" width="202" rx="4" ry="4" height="46"/>
      <text x="496.2611" xml:space="preserve" y="603.504" clip-path="url(#clipPath2)" font-family="'DejaVu Math TeX Gyre'" stroke="none">Validation</text>
      <text x="434.4186" xml:space="preserve" y="615.5041" clip-path="url(#clipPath2)" font-family="'DejaVu Math TeX Gyre'" stroke="none">(Implementation and analysis)</text>
    </g>
    <g fill="rgb(153,204,255)" text-rendering="geometricPrecision" shape-rendering="geometricPrecision" transform="matrix(1,0,0,1,-201,-375)" stroke="rgb(153,204,255)">
      <rect x="632" y="482" clip-path="url(#clipPath2)" width="202" rx="4" ry="4" height="46" stroke="none"/>
    </g>
    <g text-rendering="geometricPrecision" stroke-miterlimit="1.45" shape-rendering="geometricPrecision" transform="matrix(1,0,0,1,-201,-375)" stroke-linecap="butt">
      <rect x="632" y="482" clip-path="url(#clipPath2)" fill="none" width="202" rx="4" ry="4" height="46"/>
      <text x="656.3807" xml:space="preserve" y="502.504" clip-path="url(#clipPath2)" font-family="'DejaVu Math TeX Gyre'" stroke="none">Design Countermeasures</text>
      <text x="638.6506" xml:space="preserve" y="514.5041" clip-path="url(#clipPath2)" font-family="'DejaVu Math TeX Gyre'" stroke="none">(Masking, Blinding, or other...)</text>
    </g>
    <g fill="rgb(153,204,255)" text-rendering="geometricPrecision" shape-rendering="geometricPrecision" transform="matrix(1,0,0,1,-201,-375)" stroke="rgb(153,204,255)">
      <rect x="424" y="390" clip-path="url(#clipPath2)" width="202" rx="4" ry="4" height="46" stroke="none"/>
    </g>
    <g text-rendering="geometricPrecision" stroke-miterlimit="1.45" shape-rendering="geometricPrecision" transform="matrix(1,0,0,1,-201,-375)" stroke-linecap="butt">
      <rect x="424" y="390" clip-path="url(#clipPath2)" fill="none" width="202" rx="4" ry="4" height="46"/>
      <text x="430.8906" xml:space="preserve" y="410.504" clip-path="url(#clipPath2)" font-family="'DejaVu Math TeX Gyre'" stroke="none">Evaluate Side-channel Attacks </text>
      <text x="450.4207" xml:space="preserve" y="422.5041" clip-path="url(#clipPath2)" font-family="'DejaVu Math TeX Gyre'" stroke="none">(Identify Vulnerabilities)</text>
      <path fill="none" d="M424.0007 616.9761 L423.3281 616.875 L409.1445 613 L395.75 607.5 L383.1445 600.375 L371.3281 591.625 L360.3008 581.25 L350.0625 569.25 L340.6133 555.625 L331.9531 540.375 L329.5699 535.2655" clip-path="url(#clipPath2)"/>
      <path d="M326.1882 528.0154 L326.7294 541.0041 L329.9926 536.1718 L335.7921 536.777 Z" clip-path="url(#clipPath2)" stroke="none"/>
      <path fill="none" d="M723.8118 528.0154 L718.0469 540.375 L709.3867 555.625 L699.9375 569.25 L689.6992 581.25 L678.6719 591.625 L666.8555 600.375 L654.25 607.5 L640.8555 613 L633.7371 614.9448 L633.6382 614.9596" clip-path="url(#clipPath2)"/>
      <path d="M625.9031 617.0015 L638.7819 618.7731 L634.605 614.7044 L636.2296 609.1043 Z" clip-path="url(#clipPath2)" stroke="none"/>
      <path fill="none" d="M327.1956 481.9967 L332.9375 470.75 L341.9844 456.0625 L351.75 443 L362.2344 431.5625 L373.4375 421.75 L385.3594 413.5625 L398 407 L411.3594 402.0625 L416.1929 400.9252" clip-path="url(#clipPath2)"/>
      <path d="M423.9802 399.0929 L411.154 396.9743 L415.2195 401.1542 L413.4444 406.7084 Z" clip-path="url(#clipPath2)" stroke="none"/>
      <path fill="none" d="M626.0198 399.0929 L638.6406 402.0625 L652 407 L664.6406 413.5625 L676.5625 421.75 L687.7656 431.5625 L698.25 443 L708.0156 456.0625 L717.0625 470.75 L719.1667 474.8716" clip-path="url(#clipPath2)"/>
      <path d="M722.8043 481.9967 L721.8011 469.0355 L718.712 473.9809 L712.8947 473.5825 Z" clip-path="url(#clipPath2)" stroke="none"/>
    </g>
  </g>
</svg>
